<svg width="61" height="59" viewBox="0 0 61 59" fill="none" xmlns="http://www.w3.org/2000/svg">
<path d="M40.0258 57.1822C38.2414 57.8075 36.4022 58.2706 34.5356 58.5657L35.1016 58.3586L28.4343 58.5149L30.3342 58.0537L28.2795 57.9463C28.3128 57.9463 28.3481 57.913 28.3814 57.8446C28.3936 57.8596 28.409 57.8716 28.4264 57.8798C28.4441 57.8887 28.4635 57.894 28.4832 57.8954C28.4955 57.8806 28.5109 57.8686 28.5283 57.8603C28.546 57.8514 28.5653 57.8461 28.5851 57.8446L28.636 57.7938H28.2795L29.919 57.4343H29.9699C29.9401 57.4121 29.9063 57.3961 29.8704 57.3871C29.8344 57.378 29.797 57.3761 29.7603 57.3815L30.6848 57.2779L28.4186 57.1255L29.9562 57.0239L28.1228 56.8148L28.1738 56.7132C28.8485 56.4074 29.5968 56.301 30.3303 56.4064C30.8767 56.5979 31.4507 56.7034 32.0304 56.7132C32.6454 56.5412 33.2957 56.338 33.9793 56.0996L33.6698 55.9979L32.0304 56.1504L33.1645 55.8455L31.7778 55.4859L31.1608 55.4351L31.4604 55.4019L28.6282 54.6359L28.9357 54.6867C30.4569 53.7662 32.123 53.1088 33.8637 52.7423L32.3223 52.8439L32.6317 52.4882L33.4524 52.0778L32.2204 51.9762C32.5984 51.943 32.9765 51.8922 33.3525 51.8238L31.813 51.9762C31.8337 51.9573 31.8585 51.9432 31.8855 51.9352C31.9119 51.9263 31.9399 51.923 31.9677 51.9254L32.2772 51.8238H32.5945V51.8746C32.7434 51.814 32.8962 51.7613 33.0529 51.7222H32.7473L33.4132 51.6206L32.8472 51.5698H32.6396C33.1038 51.302 33.5836 51.0617 34.0753 50.8506C34.2219 50.7797 34.3774 50.7284 34.5375 50.6982H34.3338C34.6159 50.5614 34.9077 50.4402 35.2055 50.3425L33.3584 50.6493L34.847 50.1393C38.6549 49.3313 42.1261 47.386 44.7991 44.5621C46.7497 42.7132 48.2949 40.4807 49.337 38.0058C50.3791 35.5309 50.8954 32.8673 50.8534 30.1832C50.8902 27.4842 50.372 24.8064 49.3307 22.3151C48.2894 19.8238 46.747 17.572 44.7991 15.6988C41.7228 12.5265 37.6482 10.5039 33.2565 9.96917C32.3051 9.83749 31.3457 9.77024 30.3851 9.76789C27.6889 9.72877 25.0127 10.2346 22.5176 11.2549C20.0226 12.2752 17.7604 13.7889 15.8674 15.7047C14.4512 17.1312 13.2427 18.7474 12.2771 20.51C11.5361 21.3859 10.8834 22.3324 10.3282 23.3358C9.42952 26.1087 9.1842 29.0512 9.61134 31.9342C9.97912 34.975 10.9414 37.9142 12.4436 40.5853C9.49032 35.7636 8.5514 29.9782 9.82874 24.4731C9.75178 24.5688 9.68972 24.6755 9.64463 24.7897C9.45608 25.456 9.35339 26.1435 9.33907 26.8357H9.19411C8.8197 29.8258 9.0827 32.8612 9.96586 35.7429C9.90532 35.6273 9.85422 35.507 9.81308 35.3833L9.19411 33.0715L9.3469 34.7677L8.5791 30.5701V31.0333L8.37344 30.1617L8.8866 35.2778L8.16973 32.452L8.63002 35.0608C8.19659 33.3516 7.93932 31.6027 7.86222 29.8412C7.95868 34.1927 9.27428 38.4304 11.6601 42.0744C12.0009 42.6196 12.3613 43.1844 12.7354 43.7706L14.275 44.7927L11.9108 41.367L12.0655 41.9845L10.7297 39.1568C11.3467 40.0792 11.9794 40.9996 12.6277 41.922C13.515 43.2469 14.5492 44.4702 15.7107 45.5646V45.5079C14.9683 44.7028 14.2828 43.8488 13.658 42.9499C13.8636 43.2332 14.0673 43.4775 14.275 43.7198L12.8902 41.7207L14.5884 43.7706L13.3603 41.9786C15.227 44.5247 17.6246 46.6368 20.388 48.1695C21.0383 48.5095 21.7062 48.8183 22.3898 49.0899L21.669 48.9375L22.7463 49.3987C22.7438 49.525 22.78 49.6491 22.8501 49.7543L22.5425 49.7035L22.8501 49.8559L22.899 49.9576L20.8385 49.4651L22.6777 50.069L20.01 49.557L21.6004 50.5282L20.3684 50.2214L21.242 50.7314C21.1379 50.7324 21.0347 50.7502 20.9364 50.7842L20.9874 50.835L21.2949 50.9366L22.3212 51.2434C19.8262 50.8721 17.4504 49.9321 15.3783 48.4965C13.3063 47.0609 11.5936 45.1683 10.3733 42.9655C9.08044 40.796 8.06388 38.4741 7.34709 36.0536L7.86025 37.998C7.68985 37.5212 7.53512 37.06 7.39802 36.6164C7.39019 36.6732 7.36642 36.7268 7.32946 36.7708C7.29369 36.8145 7.24711 36.8482 7.19431 36.8685C6.81628 36.9388 6.93577 38.1152 7.5508 40.3997C7.90336 41.1325 8.31467 41.834 8.78475 42.4985C9.1236 42.9753 9.46639 43.4697 9.80916 43.9836L9.50165 43.2156L12.7844 47.0556L10.8864 44.5992C13.0156 47.1963 15.4824 49.4984 18.2217 51.4447L14.2201 49.0899L17.9671 51.7495C16.34 50.9534 14.8504 49.9039 13.5542 48.6404C12.5631 47.6849 11.5896 46.7644 10.6318 45.8753L11.145 46.5944C9.89162 45.1452 8.82378 43.5462 7.96602 41.834C8.23632 42.7193 8.56148 43.7257 8.93951 44.8532L5.55491 38.8598C5.89572 39.745 6.28941 40.6322 6.73207 41.5194L6.47549 40.6987C7.18062 42.1467 8.0052 43.5322 8.93753 44.8474C10.8276 47.5526 13.211 49.8788 15.9633 51.7046L13.611 50.3132L18.3294 53.3324L15.6597 52.0544C16.737 52.8322 17.9083 53.4692 19.1481 53.95C20.4467 54.3916 21.763 54.8 23.0969 55.1752V55.5348C21.963 55.5758 20.8413 55.2909 19.865 54.714C19.3194 54.4422 18.7504 54.2199 18.1649 54.0496L20.5251 55.2768L19.6006 55.0228L20.7347 55.3785L19.7083 55.1752C20.813 55.5783 21.9446 55.9035 23.0949 56.1484V56.508L21.3948 56.4044L23.0949 56.8656V57.018C19.5438 56.4138 16.1764 55.0133 13.2466 52.9221L12.9881 52.7188C10.1931 50.8838 8.34602 49.7446 7.44894 49.3029C6.45033 48.7092 5.6476 47.837 5.13965 46.7937C4.33695 45.3343 3.58117 43.8497 2.87346 42.3421C2.17131 40.9517 1.48702 39.5524 0.820755 38.1445C0.546442 36.9456 0.341107 35.7321 0.205738 34.5098C-0.0685793 32.1466 -0.0685793 29.7597 0.205738 27.3966C0.546549 25.0496 1.10084 22.7358 1.85886 20.4866C2.66192 18.2686 3.69414 16.1385 4.93594 14.1316C6.67277 11.4334 8.81893 9.02053 11.2977 6.97928L10.3223 7.59093C14.2503 3.90697 19.2058 1.49827 24.5345 0.682906L25.8135 0.374145C27.5065 0.072849 29.2268 -0.047037 30.9453 0.0165305L33.7776 0.168957L34.0733 0.282299H34.7393L36.5295 0.702448L39.7163 1.46067L44.1312 3.35427L45.3103 4.01869L50.3872 7.59093L52.5946 9.74249C54.2463 11.4675 55.6736 13.3932 56.843 15.4741C58.0733 17.5282 59.0387 19.7291 59.7164 22.0245C60.3961 24.3226 60.7917 26.695 60.8955 29.0908C61.1895 33.7759 60.29 38.459 58.2807 42.7036C57.4429 44.485 56.4096 46.1681 55.1997 47.722C55.0936 47.9011 54.9744 48.0722 54.8432 48.234C52.8333 51.188 50.1779 53.6487 47.077 55.4308C43.9761 57.213 40.5104 58.2701 36.9408 58.5227C36.4988 58.5903 36.0522 58.6243 35.605 58.6244C37.1112 58.2472 38.5881 57.7645 40.0258 57.1822V57.1822ZM14.2201 51.0402C14.4336 51.1828 14.6393 51.3372 14.8351 51.5014L13.611 50.3132L9.29597 46.1274C10.6337 48.0425 12.3006 49.7055 14.2201 51.0402ZM13.2976 45.207L9.70731 40.1906C9.87771 40.6361 10.0677 41.0797 10.2734 41.5194C10.5162 41.9669 10.7905 42.3949 11.096 42.8014C11.6092 43.5537 12.1576 44.308 12.7394 45.0623L12.328 44.14L13.2976 45.207V45.207ZM7.14338 28.8817C7.11024 30.0624 7.1784 31.2438 7.34709 32.4129C7.24524 31.2209 7.22957 30.0249 7.29616 28.8309H7.24329C7.20463 28.8342 7.16877 28.8524 7.14338 28.8817V28.8817Z" fill="url(#paint0_linear_5009_4)"/>
<defs>
<linearGradient id="paint0_linear_5009_4" x1="13.7109" y1="6.83857" x2="55.7256" y2="48.9501" gradientUnits="userSpaceOnUse">
<stop stop-color="#EA5540"/>
<stop offset="1" stop-color="#8C1D82"/>
</linearGradient>
</defs>
</svg>
